<!DOCTYPE svg PUBLIC "-//W3C//DTD SVG 1.1//EN" "http://www.w3.org/Graphics/SVG/1.1/DTD/svg11.dtd">
<!-- Uploaded to: SVG Repo, www.svgrepo.com, Transformed by: SVG Repo Mixer Tools -->
<svg width="256px" height="256px" viewBox="0 0 24 24" xmlns="http://www.w3.org/2000/svg" fill="#ffffff" stroke="#ffffff">
<g id="SVGRepo_bgCarrier" stroke-width="0"/>
<g id="SVGRepo_tracerCarrier" stroke-linecap="round" stroke-linejoin="round"/>
<g id="SVGRepo_iconCarrier"> <path fill="#ffffff" d="M17 8.67v-3.4c.62-.54 1-1.34 1-2.27 0-1.71-1.29-3-3-3H9C7.29 0 6 1.29 6 3c0 .93.38 1.73 1 2.27v3.4c-1.31.99-2 2.86-2 4.33 0 1.71 1.29 3 3 3h3v5l1 3 1-3v-5h3c1.71 0 3-1.29 3-3 0-1.47-.69-3.34-2-4.33zM16 14H8c-.6 0-1-.39-1-1 0-1.22.79-3 2-3V4c-.6 0-1-.39-1-1s.4-1 1-1h6c.6 0 1 .39 1 1s-.4 1-1 1v6c1.21 0 2 1.78 2 3 0 .61-.4 1-1 1z"/> </g>
</svg>